<svg width="680" height="900" viewBox="0 0 680 900" fill="none" xmlns="http://www.w3.org/2000/svg">
<path d="M368.474 17.3966C376.539 33.1221 370.329 52.4083 354.603 60.4735C338.878 68.5387 319.592 62.3289 311.526 46.6034C303.461 30.8779 309.671 11.5917 325.397 3.52648C341.122 -4.53874 360.408 1.67113 368.474 17.3966ZM326.766 899.013L307.987 853.766L353.234 834.987L372.013 880.234L326.766 899.013ZM357.204 458.574L359.53 464.105L357.204 458.574ZM340 32C345.795 30.4442 345.795 30.4464 345.796 30.45C345.797 30.4532 345.799 30.4583 345.8 30.4647C345.804 30.4774 345.809 30.496 345.815 30.5205C345.828 30.5696 345.848 30.642 345.873 30.7376C345.924 30.9287 345.999 31.2122 346.098 31.5853C346.295 32.3315 346.586 33.4359 346.961 34.8758C347.71 37.7558 348.796 41.9782 350.146 47.3618C352.846 58.1283 356.603 73.5419 360.836 92.1503C369.301 129.354 379.684 179.387 387.33 230.612C394.966 281.763 399.923 334.424 397.399 376.766C396.138 397.919 392.993 416.86 387.166 431.86C381.344 446.846 372.54 458.635 359.53 464.105L354.879 453.043C363.731 449.321 370.786 440.885 375.98 427.515C381.168 414.16 384.195 396.615 385.42 376.052C387.869 334.965 383.059 283.281 375.462 232.384C367.876 181.562 357.561 131.846 349.135 94.8124C344.924 76.3022 341.188 60.9751 338.506 50.2806C337.165 44.9336 336.088 40.7455 335.347 37.8975C334.977 36.4735 334.69 35.3845 334.497 34.6534C334.4 34.2878 334.327 34.0116 334.278 33.8277C334.253 33.7358 334.235 33.6669 334.223 33.6215C334.217 33.5988 334.212 33.5819 334.209 33.5709C334.208 33.5655 334.207 33.5617 334.206 33.5589C334.205 33.5566 334.205 33.5558 340 32ZM359.53 464.105C342.827 471.128 334.849 490.074 333.268 520.467C331.709 550.461 336.546 588.82 342.505 630.495C348.429 671.916 355.428 716.427 357.863 757.903C360.293 799.286 358.257 838.541 345.545 869.292L334.455 864.708C346.096 836.547 348.287 799.54 345.884 758.606C343.486 717.765 336.591 673.904 330.626 632.194C324.698 590.737 319.654 551.205 321.285 519.844C322.895 488.882 331.179 463.008 354.879 453.043L359.53 464.105Z" fill="#FFCE99"/>
<ellipse cx="371.5" cy="181" rx="31.5" ry="32" fill="#FFCE99"/>
<ellipse cx="389.5" cy="337" rx="31.5" ry="32" fill="#FFCE99"/>
<ellipse cx="327.5" cy="544" rx="31.5" ry="32" fill="#FFCE99"/>
<ellipse cx="348.5" cy="710" rx="31.5" ry="32" fill="#FFCE99"/>
</svg>
